<svg xmlns="http://www.w3.org/2000/svg" viewBox="0 0 247.85 204.75"><defs><style>.cls-1{fill:#d13f44;fill-rule:evenodd;}</style></defs><g id="Camada_2" data-name="Camada 2"><g id="Camada_1-2" data-name="Camada 1"><path class="cls-1" d="M118.54,156.25h10.77a5.39,5.39,0,0,1,5.39,5.39v10.78a5.39,5.39,0,0,1-5.39,5.39H118.54a5.39,5.39,0,0,1-5.39-5.39V161.64A5.39,5.39,0,0,1,118.54,156.25ZM43.1,140.09H32.33a5.39,5.39,0,0,1-5.39-5.39V123.93a5.39,5.39,0,0,1,5.39-5.39H43.1a5.39,5.39,0,0,1,5.39,5.39V134.7A5.39,5.39,0,0,1,43.1,140.09Zm0,37.72H32.33a5.39,5.39,0,0,1-5.39-5.39V161.64a5.39,5.39,0,0,1,5.39-5.39H43.1a5.39,5.39,0,0,1,5.39,5.39v10.78A5.39,5.39,0,0,1,43.1,177.81Zm43.11-75.44H75.43A5.39,5.39,0,0,1,70,97V86.21a5.39,5.39,0,0,1,5.39-5.39H86.21a5.39,5.39,0,0,1,5.39,5.39V97A5.39,5.39,0,0,1,86.21,102.37Zm0,37.72H75.43A5.39,5.39,0,0,1,70,134.7V123.93a5.39,5.39,0,0,1,5.39-5.39H86.21a5.39,5.39,0,0,1,5.39,5.39V134.7A5.39,5.39,0,0,1,86.21,140.09Zm0,37.72H75.43A5.4,5.4,0,0,1,70,172.42V161.64a5.4,5.4,0,0,1,5.39-5.39H86.21a5.4,5.4,0,0,1,5.39,5.39v10.78A5.4,5.4,0,0,1,86.21,177.81Zm43.1-75.44H118.54A5.39,5.39,0,0,1,113.15,97V86.21a5.39,5.39,0,0,1,5.39-5.39h10.77a5.39,5.39,0,0,1,5.39,5.39V97A5.39,5.39,0,0,1,129.31,102.37Zm0,37.72H118.54a5.39,5.39,0,0,1-5.39-5.39V123.93a5.39,5.39,0,0,1,5.39-5.39h10.77a5.39,5.39,0,0,1,5.39,5.39V134.7A5.39,5.39,0,0,1,129.31,140.09Zm43.11-37.72H161.64A5.39,5.39,0,0,1,156.25,97V86.21a5.39,5.39,0,0,1,5.39-5.39h10.78a5.39,5.39,0,0,1,5.39,5.39V97A5.39,5.39,0,0,1,172.42,102.37Zm0,37.72H161.64a5.39,5.39,0,0,1-5.39-5.39V123.93a5.39,5.39,0,0,1,5.39-5.39h10.78a5.39,5.39,0,0,1,5.39,5.39V134.7A5.39,5.39,0,0,1,172.42,140.09Zm43.1-37.72H204.75A5.39,5.39,0,0,1,199.36,97V86.21a5.39,5.39,0,0,1,5.39-5.39h10.77a5.39,5.39,0,0,1,5.39,5.39V97A5.39,5.39,0,0,1,215.52,102.37Zm0,37.72H204.75a5.39,5.39,0,0,1-5.39-5.39V123.93a5.39,5.39,0,0,1,5.39-5.39h10.77a5.39,5.39,0,0,1,5.39,5.39V134.7A5.39,5.39,0,0,1,215.52,140.09Zm21.55-75.43H10.78V183.19A10.78,10.78,0,0,0,21.55,194H226.3a10.78,10.78,0,0,0,10.77-10.78Zm0-43.11A10.77,10.77,0,0,0,226.3,10.78H21.55A10.77,10.77,0,0,0,10.78,21.55V53.88H237.07ZM226.3,204.75H21.55A21.57,21.57,0,0,1,0,183.19V21.55A21.57,21.57,0,0,1,21.55,0H226.3a21.57,21.57,0,0,1,21.55,21.55V183.19A21.57,21.57,0,0,1,226.3,204.75Z"/></g></g></svg>