<svg xmlns="http://www.w3.org/2000/svg" viewBox="0 0 201.35 240.5"><defs><style>.cls-1{fill:#d13f44;}</style></defs><g id="Camada_2" data-name="Camada 2"><g id="Camada_1-2" data-name="Camada 1"><path class="cls-1" d="M179.85,44h-3.14V40.87a2.5,2.5,0,1,0-5,0V44h-3.13a2.51,2.51,0,0,0,0,5h3.13v3.12a2.5,2.5,0,1,0,5,0V49h3.14A2.51,2.51,0,1,0,179.85,44ZM80.17,32.47H23.58c-6.68,0-6.68-10,0-10H80.11c6.68,0,6.68,10,0,10Zm0,43.05H23.58c-6.68,0-6.68-10,0-10H80.11c6.68,0,6.68,10,0,10Zm32,31.63H23.64c-6.69,0-6.69-10,0-10H112.2C118.89,97.13,118.89,107.15,112.2,107.15Zm0,31.63H23.64c-6.69,0-6.69-10,0-10H112.2C118.89,128.76,118.89,138.78,112.2,138.78Zm0,31.62H23.64c-6.69,0-6.69-10,0-10H112.2C118.89,160.38,118.89,170.4,112.2,170.4Zm0,31.58H23.64c-6.69,0-6.69-10,0-10H112.2C118.89,192,118.89,202,112.2,202Z"/><path class="cls-1" d="M155.32,97.13c-32.09,0-48.18-38.84-25.47-61.54S191.33,29,191.33,61.06a36,36,0,0,1-36,36ZM10,229.79,10.7,10l139.61.68v4.85c-54.81,5.64-54.86,85.44-.05,91.12l-.63,123.81ZM201.35,61.06a46,46,0,0,0-41-45.56V10.65A10.7,10.7,0,0,0,149.63,0H10.7A10.71,10.71,0,0,0,0,10.7V229.79A10.71,10.71,0,0,0,10.7,240.5H149.63a10.72,10.72,0,0,0,10.7-10.71V106.62A45.93,45.93,0,0,0,201.35,61.06Z"/><path class="cls-1" d="M152.66,62.73l2.66-7.26L158,62.78Zm5.68-18.26a2.68,2.68,0,0,0-.36-.63,4.55,4.55,0,0,0-.36-.47,2.1,2.1,0,0,0-.52-.36,2.53,2.53,0,0,0-.58-.38l-.1-.09a1.54,1.54,0,0,0-.47,0,2.75,2.75,0,0,0-.68-.11l-1.15.16-.11.09a4.3,4.3,0,0,0-1.83,1.78l0,.11L141,75.21c-1.52,4.17,4.74,6.41,6.25,2.3l3-8.15h10.13l3,8.15c1.51,4.17,7.78,1.87,6.25-2.3L158.45,44.57Z"/></g></g></svg>