<svg xmlns="http://www.w3.org/2000/svg" viewBox="0 0 188.37 254.85"><defs><style>.cls-1{fill:#d13f44;fill-rule:evenodd;}</style></defs><g id="Camada_2" data-name="Camada 2"><g id="Camada_1-2" data-name="Camada 1"><path class="cls-1" d="M27.7,33.24c-7.39,0-7.39-11.08,0-11.08H149.59c7.38,0,7.38,11.08,0,11.08ZM177.29,55.4H55.4V243.77H177.29ZM166.21,44.32V11.08H27.7c-22.16,0-22.16,33.24,0,33.24ZM11.08,227.15A16.63,16.63,0,0,0,27.7,243.77H44.32V55.4H27.7a27.59,27.59,0,0,1-16.62-5.66Zm177.29,22.16a5.54,5.54,0,0,1-5.54,5.54H27.7A27.71,27.71,0,0,1,0,227.15V27.7A27.71,27.71,0,0,1,27.7,0H171.75a5.54,5.54,0,0,1,5.54,5.54V44.32h5.54a5.54,5.54,0,0,1,5.54,5.54Z"/></g></g></svg>