<svg xmlns="http://www.w3.org/2000/svg" viewBox="0 0 246.03 289.45"><defs><style>.cls-1{fill:#d13f44;}</style></defs><g id="Camada_2" data-name="Camada 2"><g id="Camada_1-2" data-name="Camada 1"><path class="cls-1" d="M231.56,289.45H29A14.48,14.48,0,0,1,14.47,275c0-6.43,9.65-6.43,9.65,0A4.82,4.82,0,0,0,29,279.8H231.56a4.82,4.82,0,0,0,4.82-4.82V14.47a4.82,4.82,0,0,0-4.82-4.82H29a4.82,4.82,0,0,0-4.83,4.82v9.65c0,6.43-9.65,6.43-9.65,0V14.47A14.48,14.48,0,0,1,29,0H231.56A14.47,14.47,0,0,1,246,14.47V275A14.47,14.47,0,0,1,231.56,289.45Z"/><path class="cls-1" d="M83.77,174.33a67.27,67.27,0,0,0,93,0,12.26,12.26,0,0,0-6.88-6.14L145,157.54l-3.12,1.71a24.47,24.47,0,0,1-23.26,0l-3.12-1.71-23.77,10.2a14,14,0,0,0-8,6.59Zm46.48,28.29a76.38,76.38,0,0,1-55.67-23.83A4.83,4.83,0,0,1,73.47,174c2.31-7.23,8.19-13.22,15-15.27l25.39-11a4.79,4.79,0,0,1,4.22.2l5.17,2.82a14.72,14.72,0,0,0,14,0l5.17-2.87a4.82,4.82,0,0,1,4.22-.21l26.49,11.41c5.93,1.72,11.65,7.65,13.92,14.88a4.79,4.79,0,0,1-1.11,4.78A76.48,76.48,0,0,1,130.25,202.62Z"/><path class="cls-1" d="M65.17,161.6a4.75,4.75,0,0,1-4.32-2.7,75.86,75.86,0,0,1-7.78-33.47A77.19,77.19,0,1,1,199.85,158.9c-2.82,5.78-11.5,1.61-8.7-4.18a66.36,66.36,0,0,0,6.64-29.29,67.54,67.54,0,1,0-135.08,0,66.48,66.48,0,0,0,6.78,29.24A4.82,4.82,0,0,1,65.17,161.6Z"/><path class="cls-1" d="M193,241.21H67.54c-6.43,0-6.43-9.65,0-9.65H193C199.4,231.56,199.4,241.21,193,241.21ZM33.77,29H4.82c-6.43,0-6.43-9.65,0-9.65h29C40.2,19.3,40.2,29,33.77,29Zm0,38.59H4.82c-6.43,0-6.43-9.65,0-9.65h29C40.2,57.89,40.2,67.54,33.77,67.54Zm0,38.59H4.82c-6.43,0-6.43-9.65,0-9.65h29C40.2,96.48,40.2,106.13,33.77,106.13Zm0,38.6H4.82c-6.43,0-6.43-9.65,0-9.65h29C40.2,135.08,40.2,144.73,33.77,144.73Zm0,38.59H4.82c-6.43,0-6.43-9.65,0-9.65h29C40.2,173.67,40.2,183.32,33.77,183.32Zm0,38.59H4.82c-6.43,0-6.43-9.65,0-9.65h29C40.2,212.26,40.2,221.91,33.77,221.91Zm0,38.6H4.82c-6.43,0-6.43-9.65,0-9.65h29C40.2,250.86,40.2,260.51,33.77,260.51Zm111-103.32a4.82,4.82,0,0,1-4.83-4.82v-7.75a4.82,4.82,0,0,1,1.9-3.82,19.07,19.07,0,0,0,7.75-15.32v-9.65c0-15-1-24.12-19.3-24.12S111,100.86,111,115.83v9.65a19.07,19.07,0,0,0,7.74,15.32,4.79,4.79,0,0,1,1.9,3.82v7.75c0,6.43-9.64,6.43-9.64,0v-5.43a28.68,28.68,0,0,1-9.65-21.46v-9.65c0-12.62,0-33.77,28.94-33.77s28.95,21.15,28.95,33.77v9.65a28.68,28.68,0,0,1-9.65,21.46v5.43A4.82,4.82,0,0,1,144.73,157.19Z"/><path class="cls-1" d="M19.3,67.54a4.83,4.83,0,0,1-4.83-4.83V43.42c0-6.43,9.65-6.43,9.65,0V62.71A4.82,4.82,0,0,1,19.3,67.54Zm0,38.59a4.82,4.82,0,0,1-4.83-4.82V82c0-6.43,9.65-6.43,9.65,0v19.3A4.82,4.82,0,0,1,19.3,106.13Zm0,38.6a4.83,4.83,0,0,1-4.83-4.83V120.6c0-6.43,9.65-6.43,9.65,0v19.3A4.83,4.83,0,0,1,19.3,144.73Zm0,38.59a4.83,4.83,0,0,1-4.83-4.83V159.2c0-6.43,9.65-6.43,9.65,0v19.29A4.82,4.82,0,0,1,19.3,183.32Zm0,38.59a4.82,4.82,0,0,1-4.83-4.82v-19.3c0-6.43,9.65-6.43,9.65,0v19.3A4.82,4.82,0,0,1,19.3,221.91Zm0,38.6a4.83,4.83,0,0,1-4.83-4.83v-19.3c0-6.43,9.65-6.43,9.65,0v19.3A4.83,4.83,0,0,1,19.3,260.51Z"/></g></g></svg>