<svg xmlns="http://www.w3.org/2000/svg" viewBox="0 0 306.61 306.61"><defs><style>.cls-1{fill:#d13f44;}</style></defs><g id="Camada_2" data-name="Camada 2"><g id="Camada_1-2" data-name="Camada 1"><path class="cls-1" d="M111,132.16v-37h42.3v37Zm42.3-47.58H111a10.58,10.58,0,0,0-10.57,10.58v37A10.57,10.57,0,0,0,111,142.73h42.3a10.57,10.57,0,0,0,10.57-10.57v-37A10.58,10.58,0,0,0,153.31,84.58ZM26.43,116.3V74H68.72V116.3ZM68.72,63.44H26.43A10.57,10.57,0,0,0,15.86,74V116.3a10.57,10.57,0,0,0,10.57,10.57H68.72A10.58,10.58,0,0,0,79.3,116.3V74A10.58,10.58,0,0,0,68.72,63.44Z"/><path class="cls-1" d="M264.32,296V264.32H296V296Zm-84.58,0V31.72h74V296Zm-84.58,0V74h74V296Zm-84.59,0V52.86h74V296ZM264.32,52.86H296V253.75H264.32Zm0-42.29H296V42.29H264.32ZM253.75,0V21.15h-74a10.57,10.57,0,0,0-10.57,10.57V63.44h-74V52.86A10.58,10.58,0,0,0,84.58,42.29h-74A10.58,10.58,0,0,0,0,52.86V296a10.58,10.58,0,0,0,10.57,10.57h74a10.45,10.45,0,0,0,5.29-1.49,10.45,10.45,0,0,0,5.29,1.49h74a10.44,10.44,0,0,0,5.28-1.49,10.45,10.45,0,0,0,5.29,1.49H306.61V0Z"/><path class="cls-1" d="M190.31,227.32h52.86v10.57H190.31Zm0-21.15h52.86v10.57H190.31Zm0-21.15h52.86V195.6H190.31Zm-84.58,63.44h52.86V259H105.73Zm0-21.14h52.86v10.57H105.73Zm0-21.15h52.86v10.57H105.73ZM21.15,237.89H74v10.57H21.15Zm0-21.15H74v10.58H21.15Zm0-21.14H74v10.57H21.15ZM195.6,100.44V52.86h42.29v47.58Zm42.29-58.15H195.6A10.58,10.58,0,0,0,185,52.86v47.58A10.58,10.58,0,0,0,195.6,111h42.29a10.57,10.57,0,0,0,10.57-10.57V52.86A10.58,10.58,0,0,0,237.89,42.29Z"/></g></g></svg>