<svg xmlns="http://www.w3.org/2000/svg" viewBox="0 0 201.47 134.31"><defs><style>.cls-1{fill:#f74b50;}</style></defs><g id="Camada_2" data-name="Camada 2"><g id="Camada_1-2" data-name="Camada 1"><path class="cls-1" d="M16.79,8.39a8.41,8.41,0,0,0-8.4,8.4V117.52a8.41,8.41,0,0,0,8.4,8.4H184.68a8.4,8.4,0,0,0,8.4-8.4V16.79a8.41,8.41,0,0,0-8.4-8.4ZM184.68,134.31H16.79A16.79,16.79,0,0,1,0,117.52V16.79A16.79,16.79,0,0,1,16.79,0H184.68a16.79,16.79,0,0,1,16.79,16.79V117.52A16.79,16.79,0,0,1,184.68,134.31Z"/><path class="cls-1" d="M176.29,109.13a4.28,4.28,0,0,1-2.32-.7L136.19,83.25a4.2,4.2,0,0,1,4.66-7l37.78,25.19A4.19,4.19,0,0,1,176.29,109.13Zm-151.11,0a4.2,4.2,0,0,1-2.34-7.69L60.62,76.25c4.66-3.1,9.31,3.87,4.66,7L27.5,108.41a4.21,4.21,0,0,1-2.32.7ZM100.74,89,27.11,41.3c-4.7-3-.16-10.11,4.57-7.07l69.06,44.71,69.08-44.68a4.2,4.2,0,1,1,4.56,7.06Z"/></g></g></svg>