<svg xmlns="http://www.w3.org/2000/svg" viewBox="0 0 149.05 201.65"><defs><style>.cls-1{fill:#d13f44;fill-rule:evenodd;}</style></defs><g id="Camada_2" data-name="Camada 2"><g id="Camada_1-2" data-name="Camada 1"><path class="cls-1" d="M114,96.44H35.07c-5.84,0-5.84-8.76,0-8.76H114C119.82,87.68,119.82,96.44,114,96.44Zm0,35.07H35.07c-5.84,0-5.84-8.76,0-8.76H114C119.82,122.75,119.82,131.51,114,131.51Zm0,35.07H35.07c-5.84,0-5.84-8.76,0-8.76H114C119.82,157.82,119.82,166.58,114,166.58Zm26.3-114H100.83a4.4,4.4,0,0,1-4.39-4.39V8.77H17.54a8.77,8.77,0,0,0-8.77,8.77V184.12a8.77,8.77,0,0,0,8.77,8.77h114a8.77,8.77,0,0,0,8.77-8.77ZM105.21,14.82v29h29Zm26.3,186.83h-114A17.54,17.54,0,0,1,0,184.12V17.54A17.55,17.55,0,0,1,17.54,0h83.29a4.32,4.32,0,0,1,3.4,1.74l43.08,43.08a4.34,4.34,0,0,1,1.74,3.4v135.9A17.54,17.54,0,0,1,131.51,201.65Z"/></g></g></svg>