<svg xmlns="http://www.w3.org/2000/svg" viewBox="0 0 171.46 190.08"><defs><style>.cls-1{fill:#d13f44;}</style></defs><g id="Camada_2" data-name="Camada 2"><g id="Camada_1-2" data-name="Camada 1"><path class="cls-1" d="M47.61,76h9.63c12.84,0,12.84-19,0-19H47.61C34.76,57,34.76,76,47.61,76Zm95,28.51a29,29,0,0,0-25,14.25c-6.43,11,10.33,20.54,16.76,9.5a9.7,9.7,0,0,1,16.7,0,9.51,9.51,0,0,1-8.43,14.2c-12.85,0-12.85,19,0,19C181.09,161.53,181.09,104.52,142.57,104.52ZM95.77,133H47.61c-12.85,0-12.85,19,0,19H95.77C108.61,152,108.61,133,95.77,133ZM149.4,173.8a18,18,0,0,0-1.47-1.14,10.87,10.87,0,0,0-3.45-1.43,9.69,9.69,0,0,0-8.68,2.57,9.4,9.4,0,0,0,0,13.51,10,10,0,0,0,6.71,2.77,9.52,9.52,0,0,0,9-13.11,11,11,0,0,0-2.1-3.12ZM95.77,32.42,120.64,57H105.45a9.57,9.57,0,0,1-9.63-9.5ZM105.4,171H28.34a9.58,9.58,0,0,1-9.63-9.5V28.5A9.58,9.58,0,0,1,28.34,19H76.5V47.51A28.72,28.72,0,0,0,105.4,76h28.9v9.5c0,12.67,19.26,12.67,19.26,0v-19a1.18,1.18,0,0,0,0-.59,9.33,9.33,0,0,0-.66-2.58v-.83a10.53,10.53,0,0,0-1.81-2.68L93.3,2.83A8.29,8.29,0,0,0,90.5,1h-.76a8.5,8.5,0,0,0-3-1H28.9A28.72,28.72,0,0,0,0,28.5v133A28.72,28.72,0,0,0,28.9,190H106c12.84,0,12.84-19,0-19ZM95.77,95H47.61c-12.85,0-12.85,19,0,19H95.77C108.61,114,108.61,95,95.77,95Z"/></g></g></svg>