<svg xmlns="http://www.w3.org/2000/svg" viewBox="0 0 512 512"><defs><style>.cls-1{fill:#2d95b5;}</style></defs><g id="Camada_2" data-name="Camada 2"><g id="Camada_1-2" data-name="Camada 1"><path class="cls-1" d="M490.21,451a39.2,39.2,0,1,1-39.2-39.2A39,39,0,0,1,490.21,451ZM390,451a61,61,0,0,0,122,0c0-30.53-21.79-55.54-50.1-59.91V139.47a49,49,0,1,0-98,0V301.78a29.27,29.27,0,0,1-29.4,29.4,51.11,51.11,0,0,0-51.17,51.17V430.3a61,61,0,0,1-122,0V311.54c77.34-5.44,138.33-70.81,138.33-149.21V49a48.81,48.81,0,0,0-49-49V21.79A26.94,26.94,0,0,1,277.79,49V162.33c0,70.81-57.77,128.56-128.58,128.56S21.79,232.06,21.79,162.33V49A27,27,0,0,1,49,21.79V0A48.82,48.82,0,0,0,0,49V162.33C0,241.87,61,306.1,139.47,311.54V429.22a82.78,82.78,0,1,0,165.55,0V381.28a29.25,29.25,0,0,1,29.39-29.39,51.12,51.12,0,0,0,51.18-51.18V139.47a27.24,27.24,0,1,1,54.47,0V391.1C411.75,395.47,390,420.48,390,451Z"/></g></g></svg>