<svg xmlns="http://www.w3.org/2000/svg" viewBox="0 0 347.3 508.14"><defs><style>.cls-1{fill:#2d95b5;}</style></defs><g id="Camada_2" data-name="Camada 2"><g id="Camada_1-2" data-name="Camada 1"><path class="cls-1" d="M205.92,481.46H141.38c-17.89,0-17.89,26.68,0,26.68h64.54C223.81,508.14,223.81,481.46,205.92,481.46Zm16.94-38.33H124a13.52,13.52,0,0,0-13.49,13.49A13.16,13.16,0,0,0,124,470.11h98.89a13.17,13.17,0,0,0,13.49-13.49A13.52,13.52,0,0,0,222.86,443.13Zm-97.05-13.91h95.44a13.41,13.41,0,0,0,13.43-13.43,13,13,0,0,0-13.43-13.49H125.81a13,13,0,0,0-13.43,13.49A13.41,13.41,0,0,0,125.81,429.22Zm12.3-69.41a34.37,34.37,0,0,1-22.28-8.14,39,39,0,0,1-12.54-20.86,76.59,76.59,0,0,0-6.72-20.45A85.78,85.78,0,0,0,84,291.11L72.44,275.06a183.49,183.49,0,0,1-46-101.68c0-195.46,293.21-195.46,293.21,0a183.75,183.75,0,0,1-47.6,101.68l-11.59,16.52a75.8,75.8,0,0,0-10.69,18.78A68.81,68.81,0,0,0,245.85,322a64.23,64.23,0,0,0-2.79,8.86,44,44,0,0,1-12.54,20.86,37,37,0,0,1-22.28,8.14ZM346.82,173.38C346.82-57.79,0-57.79,0,173.38A202,202,0,0,0,52.71,291.11l12.07,15.57a81.59,81.59,0,0,1,7.66,14.14,97.41,97.41,0,0,1,5.35,15.57v5.29a49.15,49.15,0,0,0,6.72,14.68,75.73,75.73,0,0,0,7.66,9.27c2.32,0,3.45,4.4,5.77,6.24a59.64,59.64,0,0,0,39.28,14.21h72.62a61.47,61.47,0,0,0,58.06-47.61,83.26,83.26,0,0,1,13-30L293,293A201.41,201.41,0,0,0,347.3,173.14Z"/><path class="cls-1" d="M231.89,200.54V169.46A13.46,13.46,0,0,0,218.46,156,14,14,0,0,0,205,169.46v31.08a28.77,28.77,0,0,1-31.08,26.74,29.31,29.31,0,0,1-31.56-26.74V169.46c0-17.89-26.74-17.89-26.74,0v31.08C121.89,271.62,225.65,271.62,231.89,200.54Z"/></g></g></svg>