<svg id="Camada_1" data-name="Camada 1" xmlns="http://www.w3.org/2000/svg" viewBox="0 0 359.99 360"><defs><style>.cls-1{fill:#2d95b5;}</style></defs><path class="cls-1" d="M110,194.28H73.53a6.84,6.84,0,1,0,0,13.67H110a6.84,6.84,0,1,0,0-13.67Zm91.14,109.36h-31.9a6.84,6.84,0,0,0,0,13.68h31.9a6.84,6.84,0,1,0,0-13.68Zm-31.9-41h31.9a6.84,6.84,0,1,0,0-13.67h-31.9a6.84,6.84,0,0,0,0,13.67Zm-59.24,41H73.53a6.84,6.84,0,0,0,0,13.68H110a6.84,6.84,0,0,0,0-13.68ZM110,249H73.53a6.84,6.84,0,1,0,0,13.67H110A6.84,6.84,0,1,0,110,249Z" transform="translate(-12 -12)"/><path class="cls-1" d="M25.68,139.6h123V208h95.7V358.3l-218.73,0V139.59ZM84.92,89.47v36.46H25.68V89c.72.26,59.24.46,59.24.46Zm63.79,0v36.46H98.59V89.47ZM312.77,208v41H258.08V208Zm0,95.67H258.08v-41h54.69Zm0,54.68H258.08v-41h54.69Zm52.39,0H326.43v-41h38.71a6.84,6.84,0,1,0,0-13.67H326.43v-41h38.71a6.84,6.84,0,1,0,0-13.67H326.43V208h38.71a6.84,6.84,0,0,0,0-13.67H326.43V91.75a6.84,6.84,0,1,0-13.67,0V194.28H258.08V91.75a6.84,6.84,0,1,0-13.67,0V194.28h-82V46.18a6.84,6.84,0,1,0-13.68,0V75.8H98.59V46.18a6.84,6.84,0,1,0-13.67,0V75.8s-58.52.2-59.24.45V18.84a6.84,6.84,0,0,0-13.68,0V358.33A13.69,13.69,0,0,0,25.68,372l339.48,0a6.84,6.84,0,0,0,0-13.67Z" transform="translate(-12 -12)"/></svg>