<svg id="Camada_1" data-name="Camada 1" xmlns="http://www.w3.org/2000/svg" viewBox="0 0 1080.09 1080"><defs><style>.cls-1{fill:#2d95b5;}.cls-2{fill:#f74b50;}.cls-3{fill:#d13f44;}.cls-4{fill:#2c2a3d;}</style></defs><rect class="cls-1" x="24.06" y="464.63" width="1007.59" height="174.1" transform="translate(-234.74 534.83) rotate(-45)"/><rect class="cls-1" x="822.57" y="133.7" width="71.86" height="174.1" transform="translate(96.11 671.7) rotate(-45)"/><path class="cls-2" d="M191.36,438l450,450h-450ZM17.25,17.91V1062H1061.34Z" transform="translate(0.75 0)"/><polygon class="cls-3" points="990.08 1062 18 89.92 18 17.91 1062.09 1062 990.08 1062"/><path class="cls-4" d="M357.12,870l120.1-119.91L597.14,870Zm-148.5-97.59L354,627l97.62,97.79L306.21,870H209.36Zm120.1-170.85L208.62,721.46v-240Zm162,110.36L204.39,425.56c-11.35-11.14-30.58-3.1-30.58,12.77v450a18,18,0,0,0,18,18h450c16-.1,23.93-19.23,12.77-30.58L490.81,712.19Z" transform="translate(0.75 0)"/><path class="cls-4" d="M791.31,1044v-36c0-24-36-24-36,0v36h-108v-36c0-24-36-24-36,0v36h-108v-36c0-24-36-24-36,0v36h-108v-36c0-24-36-24-36,0v36h-108v-36c0-24-36-24-36,0v36h-144V882h36c24,0,24-36,0-36h-36V738h36c24,0,24-36,0-36h-36V594h36c24,0,24-36,0-36h-36V450h36c24,0,24-36,0-36h-36v-108h36c24,0,24-36,0-36h-36V61.33L1017.92,1044Zm30.75-884.69,97.79,97.78-55.21,55.23L839,286.71a18,18,0,1,0-25.39,25.42L839,337.71,762.9,413.94l-25.59-25.41a18,18,0,0,0-25.59,25.41l25.59,25.59L661,515.86,635.4,490.27c-17.07-17.07-42.58,8.52-25.59,25.59l25.59,25.41L600.88,576l-97.59-97.6Zm252,889.94L626.2,601.54l332-331.61a18,18,0,0,0,0-25.58L835.09,121.05a18,18,0,0,0-25.58,0L477.7,453,30,5.16A18.1,18.1,0,0,0-.75,17.91V1062a18,18,0,0,0,18,18H1061.34a18.12,18.12,0,0,0,12.84-30.75Z" transform="translate(0.75 0)"/></svg>