<svg id="Camada_1" data-name="Camada 1" xmlns="http://www.w3.org/2000/svg" viewBox="0 0 512 375.47"><defs><style>.cls-1{fill:#2d95b5;}</style></defs><path class="cls-1" d="M469.33,444H42.67A42.71,42.71,0,0,1,.83,392.83H196.27c11.37,0,11.37,17.06,0,17.06H18.57A25.61,25.61,0,0,0,42.67,427H469.33a25.52,25.52,0,0,0,24.1-17.07H315.73c-11.37,0-11.37-17.06,0-17.06H511.17A42.71,42.71,0,0,1,469.33,444Zm0-68.27a8.53,8.53,0,0,1-8.53-8.53V85.63H51.2v281.6c0,11.38-17.07,11.38-17.07,0V85.63A17.07,17.07,0,0,1,51.2,68.56H460.8a17.07,17.07,0,0,1,17.07,17.07v281.6A8.54,8.54,0,0,1,469.33,375.76Z" transform="translate(0 -68.56)"/></svg>