<svg id="Camada_1" data-name="Camada 1" xmlns="http://www.w3.org/2000/svg" viewBox="0 0 258.52 343.66"><defs><style>.cls-1{fill:#2d95b5;}</style></defs><path class="cls-1" d="M162.42,161A17.59,17.59,0,1,1,180,143.4,17.6,17.6,0,0,1,162.42,161Zm59.16-35.18A17.59,17.59,0,1,1,204,143.4,17.59,17.59,0,0,1,221.58,125.81Zm-34.21,21.42h9.25a25.24,25.24,0,1,0,0-7.65h-9.25a25.24,25.24,0,1,0,0,7.65Z" transform="translate(-62.76 -20.18)"/><path class="cls-1" d="M215.47,317.11,204.69,269.7a10.07,10.07,0,0,0,2.52-3.87l9.85-27.33a79.94,79.94,0,0,0,7.6-3l.63.25ZM235.8,287a3.83,3.83,0,0,0,.43,6.75l23.65,10.73-38.43,26.93,10.82-89.72,29.19,29.5ZM192,355l-20.37-17,14.89-65.51h11L212.37,338ZM124.1,304.5l23.65-10.73a3.83,3.83,0,0,0,.43-6.75L122.54,271.2l29.18-29.5,10.83,89.73Zm35.25-69a79.94,79.94,0,0,0,7.6,3l9.85,27.35a10.07,10.07,0,0,0,2.52,3.87l-10.78,47.42-9.83-81.43ZM200,263.25a2.47,2.47,0,0,1-2.33,1.64H186.31a2.51,2.51,0,0,1-2.33-1.64L176,241A78.79,78.79,0,0,0,208,241Zm-78.75-99a3.82,3.82,0,0,0-3.82-3.82,18.24,18.24,0,1,1,0-36.47h1.45c1,0,23.89-.34,35-28.21A127.22,127.22,0,0,0,192,101.68a126.9,126.9,0,0,0,38.09-5.93c11.12,27.87,34,28.21,35,28.21h1.45a18.24,18.24,0,1,1,0,36.47,3.82,3.82,0,0,0-3.82,3.82,70.73,70.73,0,1,1-141.45,0Zm.39-110.43c12.75-17.25,35.94-26,69.05-26H192c33.75-.39,57.38,8.5,70.29,26,16.66,22.5,10.73,53.66,8.47,62.85a26.18,26.18,0,0,0-4.24-.35h-1.43c-.83,0-20.42-.54-29.12-26.62a3.83,3.83,0,0,0-5-2.35A117.11,117.11,0,0,1,192,94a117.24,117.24,0,0,1-39-6.69,3.83,3.83,0,0,0-5,2.35c-8.7,26.08-28.28,26.61-29.09,26.62h-1.46a26.18,26.18,0,0,0-4.24.35c-2.28-9.17-8.21-40.24,8.45-62.81Zm168.25,201.3C270,246,245,235.62,233.35,230.77a78.44,78.44,0,0,0,37-63A25.88,25.88,0,0,0,278.1,119c2.51-9.65,9.48-43.9-9.6-69.75C254.25,30,229,20.18,193.39,20.18H192c-36.15-.3-62.09,9.54-76.5,29.1-19.08,25.83-12.11,60.08-9.6,69.75a25.87,25.87,0,0,0,7.81,48.75,78.41,78.41,0,0,0,36.94,63C139,235.6,114,246.05,94.09,255.13A53.62,53.62,0,0,0,62.76,303.8v22.86c0,5.11,7.65,5.11,7.65,0V303.79a46,46,0,0,1,26.86-41.71c13.36-6.09,29-12.8,41.36-18l-24.91,25.17a3.82,3.82,0,0,0,.75,5.94l23.63,14.58-23.19,10.5a3.82,3.82,0,0,0-.62,6.62l50.8,35.64,24.5,20.41a3.81,3.81,0,0,0,4.9,0L219,342.53l50.81-35.64a3.82,3.82,0,0,0-.62-6.62L246,289.77l23.63-14.58a3.82,3.82,0,0,0,.71-5.94l-24.91-25.18c12.34,5.21,28,11.92,41.36,18a46,46,0,0,1,26.86,41.71v22.87c0,5.1,7.65,5.1,7.65,0V303.79a53.64,53.64,0,0,0-31.36-48.67Z" transform="translate(-62.76 -20.18)"/><path class="cls-1" d="M220.18,196.55c2.42-4.5-4.33-8.13-6.75-3.63-.25.47-6.35,11.25-21.45,11.25s-21.19-10.77-21.43-11.25c-2.4-4.5-9.15-.89-6.75,3.61.34.62,8.39,15.26,28.18,15.26s27.87-14.61,28.2-15.24Z" transform="translate(-62.76 -20.18)"/></svg>