<svg id="Camada_1" data-name="Camada 1" xmlns="http://www.w3.org/2000/svg" viewBox="0 0 495.56 496.42"><defs><style>.cls-1{fill:#2d95b5;}</style></defs><path class="cls-1" d="M429.43,205.52c-22.07,0-33.17-26.73-17.54-42.33s42.32-4.53,42.32,17.55A24.79,24.79,0,0,1,429.43,205.52ZM156.83,453.34c-22.07,0-33.17-26.74-17.54-42.33s42.32-4.53,42.32,17.54A24.8,24.8,0,0,1,156.83,453.34ZM57.7,81.61c0-22.07,26.74-33.18,42.33-17.55s4.53,42.33-17.54,42.33A24.8,24.8,0,0,1,57.7,81.61Zm108.81,272.6L121.34,144.85a74.3,74.3,0,0,0,21.55-20.12l212.2,60.66a74.25,74.25,0,0,0,5.42,24.79L191.3,363.76a74.51,74.51,0,0,0-24.79-9.68ZM429.43,106.39A73.88,73.88,0,0,0,369,137.62L156.83,77c-4.52-62.45-79.5-91.76-125.06-48.9s-21,119.64,41,127.9l45,210.39c-54.19,33.3-44.28,114.88,16.39,134.25S250.14,459,225.1,400.53L394.34,247a73.69,73.69,0,0,0,35.09,8.13C528.56,255.08,528.56,106.39,429.43,106.39Z" transform="translate(-8.22 -7.79)"/></svg>